<svg xmlns="http://www.w3.org/2000/svg" fill="none" viewBox="0 0 128 128">
	<path d="M50.4 78.5a75.1 75.1 0 0 0-28.5 6.9c24.2-65.1 44.7-40.5 44.7-40.5 7.7 12.5-1 33.6-1 33.6-6 2.5-15.2.5-15.2.5Z" fill="url(#a)"/>
	<path d="M50.4 78.5c7 8 17.5 12.7 28.8 12.3-4.5-6.7-11-11.4-18.5-13.5-3.5-.7-6.8-1-10.3 1.2Z" fill="#FF5D01"/>
	<path d="M79.2 90.8c-7.4 4-15.5 4.2-22.2 1.6 4.7 3.7 10.8 5.8 17.2 5.2 5-.5 9.3-2.6 12.6-5.8-2.4-.4-5-.8-7.6-1Z" fill="url(#b)"/>
	<defs>
		<linearGradient id="a" x1="0" y1="0" x2="1" y2="1">
			<stop stop-color="#000014"/>
			<stop offset="1" stop-color="#150426"/>
		</linearGradient>
		<linearGradient id="b" x1="0" y1="0" x2="1" y2="1">
			<stop stop-color="#FF5D01"/>
			<stop offset="1" stop-color="#FF5D01" stop-opacity="0"/>
		</linearGradient>
	</defs>
</svg>
